<?xml version="1.0" standalone="no"?>
<!DOCTYPE svg PUBLIC "-//W3C//DTD SVG 1.1//EN" "http://www.w3.org/Graphics/SVG/1.1/DTD/svg11.dtd" >
<svg xmlns="http://www.w3.org/2000/svg">
<metadata>
Created by FontForge 20120731 at Sat Jul 11 22:46:19 2015
 By Ads
</metadata>
<defs>
<font id="iconfont" horiz-adv-x="1024" >
  <font-face 
    font-family="iconfont"
    font-weight="500"
    font-stretch="normal"
    units-per-em="1024"
    panose-1="2 0 6 3 0 0 0 0 0 0"
    ascent="812"
    descent="-212"
    x-height="792"
    bbox="0.835821 -212 1215 812"
    underline-thickness="50"
    underline-position="-100"
    unicode-range="U+0078-E640"
  />
<missing-glyph horiz-adv-x="374" 
d="M34 0v682h272v-682h-272zM68 34h204v614h-204v-614z" />
    <glyph glyph-name=".notdef" horiz-adv-x="374" 
d="M34 0v682h272v-682h-272zM68 34h204v614h-204v-614z" />
    <glyph glyph-name=".null" horiz-adv-x="0" 
 />
    <glyph glyph-name="nonmarkingreturn" horiz-adv-x="341" 
 />
    <glyph glyph-name="x" unicode="x" horiz-adv-x="1001" 
d="M281 543q-27 -1 -53 -1h-83q-18 0 -36.5 -6t-32.5 -18.5t-23 -32t-9 -45.5v-76h912v41q0 16 -0.5 30t-0.5 18q0 13 -5 29t-17 29.5t-31.5 22.5t-49.5 9h-133v-97h-438v97zM955 310v-52q0 -23 0.5 -52t0.5 -58t-10.5 -47.5t-26 -30t-33 -16t-31.5 -4.5q-14 -1 -29.5 -0.5
t-29.5 0.5h-32l-45 128h-439l-44 -128h-29h-34q-20 0 -45 1q-25 0 -41 9.5t-25.5 23t-13.5 29.5t-4 30v167h911zM163 247q-12 0 -21 -8.5t-9 -21.5t9 -21.5t21 -8.5q13 0 22 8.5t9 21.5t-9 21.5t-22 8.5zM316 123q-8 -26 -14 -48q-5 -19 -10.5 -37t-7.5 -25t-3 -15t1 -14.5
t9.5 -10.5t21.5 -4h37h67h81h80h64h36q23 0 34 12t2 38q-5 13 -9.5 30.5t-9.5 34.5q-5 19 -11 39h-368zM336 498v228q0 11 2.5 23t10 21.5t20.5 15.5t34 6h188q31 0 51.5 -14.5t20.5 -52.5v-227h-327z" />
    <glyph glyph-name="uniE600" unicode="&#xe600;" 
d="M604 193l16 -10q8 -5 23 -12t28 -11t26 -3t21 9l19 18q10 11 11 27t-3.5 29.5t-13 29t-12.5 21t-7 9.5q9 15 15.5 31t11.5 33q6 2 12.5 4t16.5 5.5t19 7.5t18.5 9.5t16 11.5t11 13.5t4.5 14.5v19q0 17 -13 30.5t-32.5 20.5t-31 10t-21.5 5q-2 6 -3.5 11.5t-3.5 11
t-4.5 11t-5.5 10.5l-4 10l-6 11q7 9 14 21t15.5 30t8 35.5t-11.5 28.5l-17 18q-7 7 -17 8.5t-22 -1t-23 -6.5t-22.5 -10t-18.5 -10t-13 -8q-15 9 -31.5 15.5t-33.5 11.5q-2 12 -5.5 25.5t-11 32t-20.5 30t-29 11.5h-18q-13 0 -25.5 -12t-21 -31t-12.5 -32t-7 -25
q-33 -9 -65 -27q-7 6 -15 11t-23 12.5t-28 11.5t-27 2t-24 -11l-17 -15q-8 -8 -9 -22t3 -28t12 -29.5t12.5 -24t9.5 -14.5q-18 -31 -26 -63l-8 -2q-4 -1 -10.5 -2t-12.5 -3l-14 -4q-7 -3 -13.5 -6t-13 -6.5t-11.5 -8.5t-9.5 -10t-6.5 -11t-2 -13v-19q0 -14 12.5 -26.5
t32.5 -21t32.5 -12.5t23.5 -7q3 -11 7 -21.5t9 -20.5l10 -20q-4 -7 -9 -15.5t-12 -24.5t-11 -29.5t-3.5 -27.5t9.5 -22l16 -14q11 -11 26.5 -12.5t31 4t29 13t22 13.5t7.5 6l-3 4q10 -6 21 -11.5t22.5 -10t23.5 -7.5q3 -11 7 -23.5t12.5 -32.5t21 -32.5t26.5 -12.5h18
q15 0 27.5 10t19.5 24.5t12 29.5t6 25l2 10h-5q18 5 35 12t33 16zM463 301q-56 0 -96 40.5t-40 97t40 97.5t96 41t98.5 -41.5t42.5 -97.5q0 -18 -5.5 -36t-14.5 -33t-22.5 -27.5t-29 -21.5t-33.5 -14t-36 -5zM907 3v-1q-4 16 -13 31q33 42 16 59l-8 8q-14 14 -59 -15
q-5 3 -10 5t-10.5 4t-10.5 4q-2 8 -4.5 16.5t-9.5 18.5t-17 10h-9q-20 0 -32 -46q-8 -2 -15.5 -5t-15.5 -8q-3 3 -6.5 5.5t-10.5 6.5t-13 6t-13 1t-11 -5l-9 -7q-15 -15 13 -58q-9 -15 -13 -30q-42 -8 -42 -32v-9q0 -20 42 -32q5 -15 13 -29q-29 -46 -14 -60l7 -7q3 -3 7 -4
t8 -1t8.5 1t8.5 3l8 4l6 4q4 2 6.5 3.5t3.5 2.5l1 1l-1 2q7 -4 15 -7.5t17 -6.5q11 -48 32 -48h9q11 0 19 12t10 24l2 12h-2q17 4 33 13q42 -32 57 -18l9 9q7 10 4 23.5t-11 24.5l-8 12l-1 -1q9 15 14 31q50 12 50 32v9q0 7 -5.5 13t-12 9.5t-15 6t-12 3t-5.5 0.5zM780 -95
q-25 0 -42.5 17.5t-17.5 42.5q0 10 3 19t8.5 16.5t13 13t16.5 8.5t19 3q25 0 43 -17.5t18 -42.5t-18 -42.5t-43 -17.5z" />
    <glyph glyph-name="uniE601" unicode="&#xe601;" 
d="M629 624h-263q-11 0 -19.5 6t-12.5 16t-4 23v19q0 9 2.5 17.5t7 14.5t11 9.5t15.5 3.5h263q18 0 30 -13t12 -32v-19q0 -9 -3 -17.5t-9 -14.5t-13.5 -9.5t-16.5 -3.5zM256 606h466q36 0 56 -1t38.5 -6t27 -12.5t15 -23.5t8 -35.5t1.5 -51.5h-742v41q0 14 2 30.5t5 23.5
t10.5 15.5t15.5 11t23.5 5t31.5 3t42 0.5zM801 26q0 -41 -4 -70t-16 -47.5t-22.5 -28.5t-35 -14.5t-41 -5.5t-52.5 -1h-17h-308l-2 1q-15 1 -22 2t-19 3t-17 5t-13.5 8t-12 11.5t-9 16.5t-7.5 23t-4.5 30t-3.5 38t-1 47v368h607v-386zM397 331q0 18 -10 30.5t-24 12.5
q-7 0 -13 -3.5t-10.5 -9t-7.5 -13.5t-3 -17v-362q0 -18 10 -30.5t24 -12.5t24 12.5t10 30.5v362zM531 331q0 9 -2.5 17t-7 13.5t-11 9t-12.5 3.5q-14 0 -24 -12.5t-10 -30.5v-362q0 -18 10 -30.5t24 -12.5t23.5 12.5t9.5 30.5v362zM666 331q0 12 -4.5 22t-12.5 15.5t-17 5.5
q-4 0 -8.5 -1.5t-8 -4t-7 -6.5t-5.5 -9t-3 -10.5t-1 -11.5v-362q0 -18 9.5 -30.5t23.5 -12.5t24 12.5t10 30.5v362z" />
    <glyph glyph-name="uniE602" unicode="&#xe602;" 
d="M829 616q-86 86 -201.5 117t-230.5 0t-201 -117t-117 -201t0 -230.5t117 -201.5q64 -64 148 -98t168.5 -34t168.5 34t148 98q86 86 116.5 201.5t0 230.5t-116.5 201zM733 266h-179v-184h-94v184h-183v88h183v184h94v-184h179v-88z" />
    <glyph glyph-name="uniE603" unicode="&#xe603;" 
d="M961 316l-197 -194v86h-226v209h226v93zM663 580h-183v67h181q24 0 42 -20.5t18 -48.5v-121h-58v123zM367 -120l-263 120q-17 0 -29 17.5t-12 42.5v480q0 25 12 42.5t29 17.5l263 120q11 0 20.5 -8t15 -21.5t5.5 -30.5v-720q0 -10 -2 -19t-6 -16.5t-9 -13t-11 -8.5
t-13 -3zM300 370q-13 0 -24.5 -6.5t-18.5 -18t-7 -25.5q0 -21 15 -35.5t35 -14.5q9 0 16.5 2.5t13.5 7t10.5 11t7 14t2.5 15.5q0 21 -14.5 35.5t-35.5 14.5zM663 178h58v-156q0 -28 -18 -48.5t-42 -20.5h-181v67h183v158z" />
    <glyph glyph-name="uniE604" unicode="&#xe604;" 
d="M809 -148h-595q-28 0 -47.5 16t-19.5 39v668q0 27 19.5 46.5t47.5 19.5h115v-37h-109q-15 0 -25.5 -10.5t-10.5 -24.5v-651q0 -8 4.5 -15t13 -11t18.5 -4h582q16 0 26.5 8.5t10.5 21.5v651q0 14 -10.5 24.5t-26.5 10.5h-109l1 37h115q27 0 46.5 -19.5t19.5 -46.5v-668
q0 -23 -19.5 -39t-46.5 -16zM366 425h400v-36h-400v36zM366 317h400v-35h-400v35zM366 210h400v-36h-400v36zM366 103h400v-36h-400v36zM366 -4h400v-36h-400v36zM257 425h36v-35h-36v35zM257 318h36v-36h-36v36zM257 211h36v-36h-36v36zM257 104h36v-37h-36v37zM257 -4h36
v-35h-36v35zM730 566q15 0 25.5 -10.5t10.5 -24.5v-7v9h-509v-8v6q0 9 4.5 17.5t13 13t18.5 4.5h109q1 51 1 109q0 21 11 36.5t29.5 23t35 10.5t32.5 3t33 -3.5t35.5 -11t30.5 -23t12 -35.5q0 -18 -0.5 -35.5t-0.5 -29.5v-23v-16l-1 -5h110zM511 679q-10 0 -18 -5t-13 -13
t-5 -18t5 -18t13 -13t18 -5q15 0 26 10.5t11 25.5q0 7 -3 13.5t-8 11.5t-11.5 8t-14.5 3z" />
    <glyph glyph-name="uniE605" unicode="&#xe605;" 
d="M941 -99q-12 -12 -42.5 -13t-42.5 11l-224 229q15 12 26.5 28t19 34t12.5 36.5t7.5 37.5t4 34t1.5 29q0 32 -6.5 61.5t-19 55.5t-29.5 48t-39.5 39.5t-48 30t-55 19.5t-60.5 7q-55 0 -103 -20t-81.5 -54t-53 -82t-19.5 -103q0 -113 70 -187.5t181 -74.5q18 0 26.5 0.5
t20.5 2.5t25 7v-2q3 2 11 2.5t19.5 -1.5t22 -7.5t18 -19.5t7.5 -35q0 -10 -5 -20t-13 -17.5t-17 -10.5q-49 -17 -109 -17q-104 0 -191.5 51t-138.5 138.5t-51 191.5t51 192t138.5 139.5t191.5 51.5q63 0 121 -19.5t105 -55t82 -82.5t54 -105.5t19 -120.5q0 -103 -40 -179
l157 -159q3 -3 5 -6.5t3 -8t2 -9.5t1.5 -10.5t-0.5 -11.5v-10q-1 -6 -2 -11t-2.5 -9.5t-3.5 -8t-5 -6.5zM941 -99z" />
    <glyph glyph-name="uniE606" unicode="&#xe606;" 
d="M290 455q1 0 9 -8q35 36 39 40q7 7 0 14l-165 165l-2 2q-1 1 -2.5 2t-2.5 2q-3 -3 -11.5 -12t-15 -15t-12.5 -12q-8 -7 0 -15l41 -42l40 -38q16 -17 42.5 -43t39.5 -40zM695 144q-5 3 -9 -1l-20 -20q-13 -13 -18 -17q-1 -1 -2 -3l-1 -2l2 -2q3 -3 4 -5q7 -7 94 -93
q56 -57 72 -72q5 -5 8 -2q10 9 43 42l-1 3zM696 467q7 -7 14 0q31 32 162 163l2 1l2 2q1 5 0 7q-10 9 -42 42q-4 -2 -4 -3q-17 -16 -53 -52l-63 -63l-53 -53q-4 -5 1 -10q25 -24 34 -34zM325 161q-6 7 -13 0l-163 -163l-3 -3q-2 -5 0 -6q9 -10 42 -43l3 3q17 16 53 52.5
t63.5 63.5t52.5 53q3 5 0 9q-2 1 -6 5l-6 6q-2 2 -5.5 6t-6 6t-5.5 5.5t-6 5.5zM543 690v104q0 5 -1.5 7t-6.5 2q-14 -1 -25 -1t-24 1q-5 0 -6.5 -2t-1.5 -6v-209q0 -7 8 -7h48q9 -1 9 9v102zM246 289q-1 30 0 49q0 9 -9 9h-103h-104q-8 0 -8 -8q1 -21 0 -50q0 -7 7 -7h210
q7 0 7 7zM999 338q0 9 -9 9h-103h-25h-28h-24h-27q-4 0 -6 -2t-2 -7q1 -20 0 -48q0 -5 1.5 -6.5t6.5 -1.5h209q7 0 7 7v49zM543 -62v103q0 5 -1.5 7t-6.5 2q-13 -1 -24.5 -1t-25.5 1q-2 0 -4 -1t-2.5 -2.5t-0.5 -4.5v-209q0 -7 7 -7h9h8h8h8h8h9q8 -1 8 6v2v104z" />
    <glyph glyph-name="uniE607" unicode="&#xe607;" 
d="M930 642l-66 -65q-27 34 -60 62.5t-71 50.5q-50 28 -106.5 43t-114.5 15q-45 0 -89 -9t-85 -26q-81 -34 -143 -96t-96 -143q-35 -83 -35 -174t35 -174q34 -81 96 -143t143 -96q41 -17 85 -26t89 -9q60 0 118 16t109 46q102 60 161 162q13 23 6.5 48.5t-29.5 39t-48.5 6.5
t-39.5 -30q-20 -36 -49.5 -65.5t-65.5 -50.5q-36 -22 -77.5 -33t-84.5 -11q-133 0 -226.5 93.5t-93.5 226.5t93.5 226.5t226.5 93.5q85 0 158 -42q30 -17 56.5 -40.5t46.5 -52.5l-91 -91q-5 -5 -7.5 -9.5t-2.5 -8t2.5 -6.5t7.5 -4.5t12 -1.5h234q13 0 22.5 9.5t9.5 22.5v234
q0 18 -9 21.5t-21 -9.5z" />
    <glyph glyph-name="uniE608" unicode="&#xe608;" 
d="M107 251q0 19 13.5 33.5t33.5 14.5h334v-358q0 -21 -14 -34.5t-34 -13.5h-286q-20 0 -33.5 13.5t-13.5 34.5v310zM870 299q20 0 34 -14q7 -8 10.5 -16t3.5 -18v-310q0 -21 -14 -34.5t-34 -13.5h-286q-20 0 -34 13.5t-14 34.5v358h334zM894 514q20 0 34 -14.5t14 -34.5
v-70q0 -21 -14 -35q-7 -6 -15.5 -9.5t-18.5 -3.5h-358v118q0 12 5 22q3 6 6.5 10t7.5 7q-9 -6 -19 -10q-6 -2 -12 -3.5t-12 -1.5q-24 0 -43 15q19 -13 19 -39v-118h-358q-19 0 -33.5 13.5t-14.5 34.5v70q0 20 14.5 34.5t33.5 14.5h310q17 0 29 -10l-10 10h-228
q-22 0 -37.5 16t-15.5 39v56q0 23 15.5 39.5t37.5 16.5q15 2 30 2t30 -4q31 -6 59 -19q10 -4 19 -8.5t18 -10t17 -10.5q26 -17 47 -34q9 17 25 26q5 3 11 5t12 3t13 1q21 0 37 -9.5t25 -25.5q7 4 14 9t14.5 10.5t15.5 10.5q24 15 52 27.5t59.5 20t63.5 6.5q22 0 37.5 -16.5
t15.5 -39.5v-56q0 -23 -15.5 -39t-37.5 -16h-227l-5 -5q-2 -2 -6 -5q7 5 14 7.5t15 2.5h310zM607 537h121q5 0 9 2t7 5q2 2 3 4l2 4q1 2 1.5 4.5t0.5 5.5v23q0 10 -7 17q-3 3 -7 5t-9 2l-121 -59v-13zM417 550l-121 59q-10 -1 -16 -7q-6 -7 -6 -17v-23q0 -11 6.5 -18
t15.5 -7h121v13zM417 550z" />
    <glyph glyph-name="uniE609" unicode="&#xe609;" 
d="M808 732h-590q-24 0 -41.5 -17.5t-17.5 -41.5v-768q0 -24 17.5 -41.5t41.5 -17.5h590q16 0 30 8t21.5 21.5t7.5 29.5v768q0 24 -17 41.5t-42 17.5zM377 -77h-58v734h58v-734zM715 488l-59 59l-59 -59v177h118v-177z" />
    <glyph glyph-name="uniE60A" unicode="&#xe60a;" 
d="M812 155q10 20 33 28t52.5 14t46.5 20q16 14 15.5 57t-15.5 58q-18 17 -62 30q-18 5 -27 9t-20 13t-16 22q-8 21 3 43t27.5 47t17.5 47q2 14 -12.5 34t-34.5 34t-34 14q-18 -1 -38.5 -10t-34.5 -17.5t-33 -13t-34 4.5q-21 10 -28.5 33t-14 52t-20.5 46t-57 16.5
t-58 -16.5q-8 -8 -13.5 -18.5t-9 -20.5t-7 -21t-7 -20.5t-8 -18t-12 -15.5t-17.5 -10q-16 -8 -35 -2t-32 15.5t-33 20.5t-37 14q-21 4 -51.5 -27.5t-30.5 -53.5q1 -18 10 -38.5t17.5 -34.5t13 -33t-4.5 -34q-9 -21 -32.5 -28.5t-52.5 -13.5t-46 -21q-16 -14 -16 -57t16 -58
q11 -10 26.5 -17t29.5 -11t28 -9t24.5 -14t15.5 -23q8 -21 -3 -43t-27.5 -47t-17.5 -47q-2 -22 28.5 -52t52.5 -30q18 1 38.5 10t34.5 17.5t33.5 13t34.5 -4.5q20 -9 28 -32.5t14 -52.5t20 -46q9 -11 33 -15t48.5 0.5t33.5 14.5q12 13 20.5 33.5t12.5 37t14 32t27 21.5
q22 8 43.5 -3t46.5 -27.5t47 -17.5q22 -2 52 28.5t30 52.5q-1 18 -10 38.5t-17.5 34.5t-12.5 33.5t4 34.5zM511.5 85q-84.5 0 -144 59.5t-59.5 144t59.5 144t144.5 59.5q55 0 101.5 -27.5t74 -74t27.5 -101.5q0 -85 -59.5 -144.5t-144 -59.5z" />
    <glyph glyph-name="uniE60B" unicode="&#xe60b;" 
d="M85 343h384v384h-384v-384zM555 727v-384h384v384h-384zM85 -127h384v384h-384v-384zM555 -127h384v384h-384v-384z" />
    <glyph glyph-name="uniE60C" unicode="&#xe60c;" 
d="M445 411q79 0 134.5 50.5t55.5 121.5q0 28 -9.5 54t-27 47.5t-41 37.5t-52.5 24.5t-60 8.5q-79 0 -135 -50.5t-56 -121.5q0 -47 25.5 -86.5t69.5 -62.5t96 -23zM661 290q-19 18 -47 32t-58.5 22t-59 12.5t-55.5 5.5q-102 3 -189 -61t-137.5 -175t-50.5 -241v-27h448
q-32 32 -37 75q0 38 1 65t5.5 59.5t12.5 56.5t21.5 50.5t33 47.5t48 41t64.5 37zM755 232q-85 0 -145.5 -60t-60.5 -145.5t60.5 -145.5t145.5 -60t145 60t60 145.5t-60 145.5t-145 60zM755 -120q-61 0 -104 43t-43 104q0 48 30 87l205 -204q-13 -10 -26.5 -16.5t-29.5 -10
t-32 -3.5zM884 -42l-198 198q34 17 69 17q61 0 104 -43t43 -103q0 -19 -5 -36t-13 -33z" />
    <glyph glyph-name="uniE60D" unicode="&#xe60d;" 
d="M867 456h-710q-5 0 -10.5 -2.5t-9 -6t-5.5 -8.5t-2 -11v-491q0 -7 3.5 -13.5t10 -10t13.5 -3.5h710q11 0 19 8t8 19v491q0 12 -8 20t-19 8zM676 237h-328v109h328v-109zM103 674h818q12 0 20 -8t8 -19v-108q0 -7 -4 -13.5t-10 -10t-14 -3.5h-818q-5 0 -9 1.5t-7.5 4
t-6 5.5t-4 7.5t-1.5 8.5v108q0 5 2.5 10t6 9t8.5 6t11 2z" />
    <glyph glyph-name="uniE60E" unicode="&#xe60e;" 
d="M966 282q0 -92 -36 -176.5t-97 -145.5t-145.5 -97t-176.5 -36q-62 0 -121 16t-109 45.5t-92.5 71.5t-71.5 92t-45.5 109t-16.5 121q0 93 36 177.5t97 145.5t145.5 97t177.5 36q172 0 302 -114q124 -110 148 -274q5 -34 5 -68zM511 672q-106 0 -196 -52t-142 -142
t-52 -196q0 -79 30.5 -151t83 -124.5t124.5 -83.5t152 -31q106 0 195.5 52.5t142 142t52.5 195.5q0 40 -8 79t-23 73.5t-36 66t-47.5 57.5t-58 47.5t-66 36t-73 22.5t-78.5 8zM371 593h46v-340h-46v114q-49 -22 -142 -64l-16 47q86 33 158 65v178zM805 61q-18 -23 -34 -49
q-182 30 -262 158q-62 -126 -266 -165q-3 5 -6 10.5t-7 11t-8 11.5l-8 12q198 30 249 131h-237v41h255q6 19 11 40h49q-2 -10 -5 -20l-6 -20h265v-41h-243q79 -109 253 -120zM231 525l29 30q48 -37 89 -79l-33 -31q-45 49 -85 80zM432 427q76 64 114 170l45 -9
q-6 -15 -12 -28.5t-12 -26.5h208v-37q-77 -183 -305 -231q-8 21 -24 44q86 14 149 49q-39 38 -77 66l28 29q45 -33 86 -71q60 45 93 113h-179q-34 -57 -78 -98q-17 18 -36 30z" />
    <glyph glyph-name="uniE60F" unicode="&#xe60f;" 
d="M322 193v0v0zM322 193zM322 194v-1v1zM447 50q0 8 0.5 14.5t0.5 13.5h-177q-8 0 -15.5 2t-14 6t-12.5 10q-18 17 -18 42q0 9 2 16.5t6 14t10 12.5q17 17 42 17h220q31 48 78 79q15 10 32 18t35 14t37 9h-402q-8 0 -15.5 2t-14 6t-12.5 9q-18 18 -18 43t17.5 42.5
t42.5 17.5h419q25 0 43 -17.5t18 -42.5q0 -19 -11 -34q-6 -8 -13 -13.5t-16 -8.5h7q43 0 81.5 -12.5t72.5 -34.5v339q0 26 -11 49t-28.5 39.5t-39.5 25.5q-10 5 -21 7.5t-22 2.5h-547q-3 0 -7 -0.5t-7.5 -1t-7 -1.5t-7.5 -3l-6 -2q-4 -2 -7 -4q-20 -12 -35.5 -30.5t-25 -40
t-9.5 -41.5v-594q0 -23 12.5 -45.5t31.5 -39.5q9 -8 19 -15t21 -13q5 -2 10.5 -4t10.5 -3.5t9.5 -2t9.5 -0.5h280q-23 32 -35.5 71t-12.5 82zM916 131q-17 38 -45.5 67t-67 45.5t-81.5 16.5q-22 0 -42.5 -4t-39.5 -13q-39 -16 -68 -45q-14 -15 -25.5 -31.5t-19.5 -35.5
q-17 -39 -17 -82q0 -44 17 -82.5t45.5 -67t67 -45t82.5 -16.5q43 0 81 17q20 8 36.5 19t31.5 26q9 9 17.5 20t15.5 22.5t12 24.5q17 38 17 82q0 22 -4 42.5t-13 39.5zM859 15q-5 -5 -12 -8t-15 -3h-115q-8 0 -14.5 3t-12.5 8q-11 11 -11 27v153q0 16 11 27.5t27 11.5
t27.5 -11.5t11.5 -27.5v-114h76q6 0 10.5 -1.5t9 -4t7.5 -6.5q11 -11 11 -27t-11 -27z" />
    <glyph glyph-name="uniE610" unicode="&#xe610;" 
d="M804 562l-97 49v98l-115 -9l-80 57l-81 -57l-114 9v-98l-98 -47l49 -99l-49 -98l98 -48v-98l114 9l81 -57l80 57l115 -9v98l97 48l-49 98zM723 394l-70 -35v-70l-83 6l-58 -42l-59 42l-82 -6v70l-71 35l35 71l-35 72l71 34v70l82 -6l59 41l58 -41l83 6v-70l70 -35
l-35 -71zM430 209l-133 -10v63l-244 -297l193 35l4 -197l275 337l-16 13zM727 258v-64l-133 10l-23 -16l-70 -53l261 -347l12 196l192 -43zM651 414l-46 -23v-47l-55 4l-38 -27l-39 27l-54 -4v47l-47 23l23 47l-23 47l47 22v47l54 -4l39 27l38 -27l55 4v-47l46 -23l-23 -46z
" />
    <glyph glyph-name="uniE611" unicode="&#xe611;" 
d="M743 78q1 1 5.5 4t6.5 5q11 10 10 26l-3 51l50 8q16 2 24 16q21 41 32.5 86t11.5 91v13l-1 4q-1 16 -14 25l-42 29l26 46q8 13 2 28q-40 94 -123 155q-6 4 -13.5 5.5t-14.5 -0.5l-49 -15l-19 48q-6 15 -21 19q-99 28 -197 0q-16 -4 -22 -19l-19 -48l-49 15q-15 4 -28 -5
q-12 -9 -23 -18t-21 -19.5t-19 -21t-17.5 -22t-16 -23.5t-14 -25t-12.5 -26q-6 -15 2 -28l26 -46l-42 -29q-5 -3 -8 -7t-4.5 -8.5t-1.5 -9.5v-5q-1 -8 -1 -12q0 -46 11.5 -91t33.5 -86q7 -14 23 -16l50 -8l-3 -51q-2 -15 10 -26q2 -2 6 -4.5t6 -4.5l-86 -140
q-6 -10 -5.5 -20.5t6.5 -19.5q14 -18 38 -11l79 22l50 -57q5 -6 12 -9.5t15 -3.5q3 0 7 1q20 5 26 25l41 137q3 1 6 2.5t5 4.5l37 34l37 -34q9 -9 22 -9h3q1 0 2 1q58 10 114 41l46 -73l-20 5q-25 8 -43 -12l-27 -32l-5 14q-3 8 -9.5 13.5t-15 7t-16.5 -1.5
q-13 -4 -18.5 -16t-0.5 -25l21 -59q7 -19 27 -23q1 0 3 -0.5t3 -0.5q5 0 10 1.5t9.5 4.5t7.5 7l50 57l80 -22q8 -2 15 -1.5t13 4t10 9.5q14 18 1 39zM377 -67l-25 29q-17 20 -43 12l-20 -5l45 73q35 -20 67 -30zM534 110q-9 9 -22 9t-22 -9l-46 -43q-67 15 -120 58l4 64
q1 13 -6.5 22.5t-20.5 11.5l-63 10q-30 62 -30 130l53 37q7 5 10.5 12t3.5 15t-4 15l-33 57q30 61 83 105l62 -19q12 -4 23.5 1.5t15.5 17.5l24 60q66 15 132 0l24 -60q4 -12 15.5 -17.5t23.5 -1.5l62 19q26 -22 47 -48.5t36 -56.5l-33 -57q-4 -7 -4 -15t3.5 -15t10.5 -12
l53 -37q0 -68 -30 -130l-63 -10q-13 -2 -20.5 -11.5t-6.5 -22.5l4 -64q-53 -43 -120 -58zM512 146q-92 0 -157 65t-65 157q0 45 17.5 86t47.5 71t71 47.5t86 17.5q92 0 157 -65t65 -157q0 -45 -17.5 -86t-47.5 -71t-71 -47.5t-86 -17.5zM512 526q-65 0 -111.5 -46.5
t-46.5 -111.5t46.5 -111.5t111.5 -46.5t111.5 46.5t46.5 111.5t-46.5 111.5t-111.5 46.5z" />
    <glyph glyph-name="uniE612" unicode="&#xe612;" 
d="M871 -84q0 -14 -9.5 -23.5t-23 -9.5t-23 9.5t-9.5 23.5v3v2v2q-15 106 -97 176.5t-194 71.5h-1h-2h-2h-2q-110 -1 -191.5 -70t-98.5 -174q1 -1 1 -2.5t0.5 -3t0.5 -2.5v-3q0 -9 -4.5 -16.5t-12 -12t-16.5 -4.5q-14 0 -23.5 9.5t-9.5 23.5h-1l1 2v1q0 3 1 8
q12 97 73 172.5t151 110.5q-53 34 -84 90.5t-31 122.5q0 69 32.5 127t89.5 92t125.5 34t126 -34t90 -92t32.5 -127q0 -66 -31 -122.5t-84 -90.5q90 -35 150.5 -109.5t73.5 -170.5q1 -3 1.5 -5.5t0.5 -5.5v-3zM703 423q0 26 -7 51t-19.5 46t-30 38.5t-38.5 30t-45.5 19
t-50.5 6.5q-39 0 -74.5 -15t-61 -40.5t-40.5 -61t-15 -74t15 -74t40.5 -61t61 -40.5t74.5 -15t74 15t61 40.5t41 61t15 73.5z" />
    <glyph glyph-name="uniE613" unicode="&#xe613;" 
d="M876 534q-18 106 -102.5 167.5t-185.5 42.5q-51 -9 -95.5 -33.5t-76.5 -59.5t-47 -82.5t-6 -98.5q4 -25 14 -56.5t22 -56.5l-245 -366q-17 -24 -12 -54l11 -62q-1 7 -3 16l-1 5l1 -2q8 -41 13 -41l81 -1q12 2 24.5 11t19.5 19l97 157l1 1l84 -7l114 184q29 -5 63 -4t59 6
q65 12 108.5 60.5t58.5 115.5t3 139zM756 461q-7 -10 -14.5 -16t-13.5 -9t-15 -1.5t-14.5 2.5t-16.5 8t-16.5 11t-18.5 14t-19 14t-19.5 13.5t-18.5 13.5t-15 12.5t-13 13.5t-7.5 13.5t-4 15.5t3.5 16.5t10 19.5q28 42 75.5 50.5t87.5 -20.5t48.5 -79t-19.5 -92zM756 461z
" />
    <glyph glyph-name="uniE614" unicode="&#xe614;" horiz-adv-x="1000" 
d="M325 424q0 -7 2 -13t6.5 -10.5t10 -7t11.5 -2.5h1q3 -43 24.5 -82.5t57 -65t75.5 -25.5q61 0 107 53t51 120q13 0 22 9.5t9 23.5q0 21 -18 29q5 15 7.5 30.5t2.5 31.5q0 79 -53 135t-128 56q-48 0 -90 -25.5t-66 -69.5t-24 -96q0 -31 10 -62q-8 -3 -13 -11.5t-5 -17.5z
M908 18q-112 110 -260 146q-4 2 -8 2h-9q-4 0 -8 -2q-14 -7 -32 -12.5t-37.5 -8.5t-40.5 -3q-63 0 -109 24q-4 2 -8 2h-7h-4q-151 -36 -266 -148q-5 -5 -5 -12v-60q0 -2 0.5 -5t2.5 -5t4 -3.5t4.5 -2t5.5 -0.5h765q7 0 12 4.5t5 11.5v60q0 7 -5 12z" />
    <glyph glyph-name="uniE615" unicode="&#xe615;" 
d="M792 615h-558q-39 0 -66.5 -27t-27.5 -66v-372q0 -26 12.5 -47.5t34 -34t47.5 -12.5h182l97 -117l96 117h183q39 0 66 27.5t27 66.5v372q0 39 -27 66t-66 27zM303 289q-7 0 -14 2.5t-13 7t-10.5 10t-6.5 12.5t-2 15q0 19 13.5 33t33 14t33 -14t13.5 -33t-13.5 -33
t-33.5 -14zM513 289q-6 0 -11 1.5t-9.5 3.5t-8.5 5.5t-7.5 7.5t-5.5 8.5t-3.5 10t-1.5 10.5q0 19 14 33t33 14t32.5 -14t13.5 -33q0 -8 -2 -15t-6.5 -12.5t-10 -10t-13 -7t-14.5 -2.5zM722 289q-9 0 -17.5 4t-15 10t-10 14.5t-3.5 18t3.5 18.5t10 15t15 10t17.5 4
q20 0 33.5 -14t13.5 -33q0 -13 -6.5 -23.5t-17 -17t-23.5 -6.5z" />
    <glyph glyph-name="uniE616" unicode="&#xe616;" 
d="M819 -17q0 -17 -11.5 -29t-28.5 -12h-4q-2 0 -4 0.5t-3.5 1t-3.5 1.5l-252 113l-254 -114h-1q-3 -1 -6 -1.5t-6 -0.5q-17 0 -28.5 12t-11.5 29v4q0 2 1 4l-1 1v616q0 25 12.5 37.5t35.5 12.5h518q13 0 23.5 -5t17.5 -16.5t7 -28.5v-616l-1 -1q1 -4 1 -8zM571 413l-60 104
l-58 -105l-122 -22l87 -85l-16 -118l111 52l112 -51l-18 118l86 86z" />
    <glyph glyph-name="uniE617" unicode="&#xe617;" 
d="M282 467q34 10 55 38t21 63q0 29 -14.5 53.5t-39 39t-53.5 14.5h-1h-2q-41 -1 -71 -31t-32 -71q-1 -37 20 -66.5t55 -39.5q-59 -14 -83.5 -66.5t-26.5 -147.5q0 -2 1 -3l2 -4l2.5 -2.5t3 -2t3.5 -0.5h58v-220q0 -2 1 -4t2.5 -4t4 -3t4.5 -1h118q5 0 8.5 3.5t3.5 8.5v152
q-2 7 -2 14q1 12 1.5 23.5t0.5 22.5v8h1q9 95 51 142q-5 14 -11.5 25t-14.5 20.5t-18 17t-22 12.5t-26 9zM748 467q-33 10 -54 38t-21 63q0 45 31 76t75 31h2h1q17 -1 32.5 -6t28 -14.5t22 -22t15 -28t6.5 -31.5q1 -25 -9 -47t-27 -37.5t-40 -21.5q59 -14 84 -66.5
t26 -147.5q0 -5 -3.5 -8.5t-8.5 -3.5h-58v-220q0 -5 -3.5 -8.5t-8.5 -3.5h-118q-5 0 -8.5 3.5t-3.5 8.5v152q2 7 2 14v11q0 6 -0.5 11.5t-0.5 11.5t-1 12v8h-1q-8 95 -50 142q12 34 34.5 55t56.5 29zM544 409q39 12 63 45t23 75q-2 47 -36 81t-81 35h-4q-50 0 -85.5 -35.5
t-35.5 -85.5q0 -20 6.5 -38.5t18 -33.5t27 -26.5t34.5 -16.5q-67 -16 -95 -75t-30 -167q0 -5 4 -9.5t10 -4.5h65v-249q0 -2 1 -4t2 -3.5t3 -3t4 -2t4 -0.5h134q4 0 7 1.5t5 5t2 6.5v249h65q3 0 5 1t3.5 2t3 3t2 4t0.5 4q-1 72 -12.5 119.5t-39 79.5t-73.5 43z" />
    <glyph glyph-name="uniE618" unicode="&#xe618;" 
d="M320 326h384v-76h-384v76zM474 480h76v-384h-76v384zM512 725q-89 0 -170 -34.5t-139.5 -93t-93 -139.5t-34.5 -170t34.5 -170t93 -139.5t139.5 -93t170 -34.5q59 0 116 15.5t105 44t88 68.5t68.5 88t44 105t15.5 116q0 89 -34.5 170t-93 139.5t-139.5 93t-170 34.5z
M512 -62q-71 0 -136 28t-111.5 74.5t-74.5 111.5t-28 136q0 95 47 175.5t127.5 127.5t175.5 47t175.5 -47t127.5 -127.5t47 -175.5t-47 -175.5t-127.5 -127.5t-175.5 -47z" />
    <glyph glyph-name="uniE619" unicode="&#xe619;" 
d="M784 10q0 -71 -95 -93q-64 -15 -245 -15q-45 0 -74.5 0.5t-70 2t-67.5 4.5t-58.5 8t-51.5 13t-37.5 19t-26 26.5t-8.5 34.5q0 61 64.5 133t159.5 109q-30 21 -52 50t-34 64t-12 73q0 96 70.5 164.5t170.5 68.5q66 0 121.5 -31.5t88 -85t32.5 -116.5q0 -38 -12.5 -73.5
t-34.5 -64t-52 -49.5q98 -37 161 -109t63 -133v0zM963 46v-4v-20q0 -6 -1 -16t-2.5 -14t-4.5 -10.5t-7.5 -8.5t-12 -6t-16 -5t-21 -2.5t-27 -2t-34.5 -1.5q6 7 10 15t6.5 18t2.5 21q0 30 -13.5 63.5t-38 67t-65 63t-90.5 48.5q81 57 81 187q0 83 -55 148q9 3 13.5 6.5t8.5 5
t15 1.5q41 0 70 -15t45.5 -42.5t24 -61t7.5 -76.5q0 -111 -64 -157q80 -29 124 -88.5t44 -113.5v0z" />
    <glyph glyph-name="uniE61A" unicode="&#xe61a;" 
d="M962 -108q-2 170 -12 187q-6 10 -15.5 18.5t-25 17.5t-33 17t-44.5 19q-51 22 -69.5 43.5t-18.5 58.5q0 14 12 30t17 46q1 5 3 8t4.5 4t5 3t5 5.5t4.5 11.5t3 21q0 9 -2.5 15.5t-4.5 8.5l-3 2q5 31 7 54q1 14 -3 30t-14.5 34t-34 30t-56 12t-56 -12t-34 -30t-14.5 -34
t-3 -30l7 -54h-1l-1 -2l-2 -2q-1 -1 -2 -4l-2 -4q-1 -3 -1.5 -6.5t-0.5 -7.5q1 -18 5 -27.5t8 -10.5t7.5 -4.5t4.5 -10.5q3 -19 8.5 -31t10 -16.5t8 -11.5t3.5 -17q0 -49 -37 -75q60 -30 88 -45.5t48 -33.5t24.5 -33t4.5 -41v-133h202zM523 126q-67 28 -92 57t-25 79
q0 16 7 25.5t17 26.5t15 49q1 8 4.5 12t7.5 6t8.5 6t8 15.5t4.5 30.5q0 8 -1.5 14.5t-3 10t-3.5 6t-4 3.5l-1 1q7 41 9 73q1 11 -1 24t-7 29.5t-16 31.5t-26 28t-39.5 20.5t-53.5 7.5q-35 0 -62.5 -11t-42.5 -27t-24.5 -36.5t-12 -37t-1.5 -29.5q1 -9 2 -20t2 -20t2.5 -16.5
t1.5 -12.5l1 -4q-13 -7 -13 -35q1 -19 4.5 -30.5t8 -15.5t8.5 -6t7.5 -6t4.5 -12q6 -31 15.5 -48.5t17 -27t7.5 -25.5q0 -50 -25.5 -79t-92.5 -57q-1 0 -4 -2q-10 -4 -15.5 -6.5t-15.5 -7.5t-16 -10t-12 -11.5t-9.5 -15t-3.5 -18.5v-163h625v122q0 26 -42.5 52.5
t-122.5 59.5v0zM523 126z" />
    <glyph glyph-name="uniE61B" unicode="&#xe61b;" 
d="M512 723q-71 0 -137.5 -22t-120 -62t-93.5 -93.5t-62 -120t-22 -137.5q0 -88 34.5 -169.5t92.5 -140t139 -94t169 -35.5q118 0 219 58.5t160.5 160t59.5 220.5q0 90 -35 170.5t-93.5 138.5t-139.5 92t-171 34zM265 360q0 31 20.5 51.5t51.5 20.5t51.5 -20.5t20.5 -51.5
q0 -15 -6 -28.5t-16 -23t-23 -15t-27 -5.5q-31 0 -51.5 20.5t-20.5 51.5zM512 -10q-66 0 -125 28.5t-98 77.5q49 -26 105 -38.5t118 -12.5q59 0 115.5 12.5t107.5 38.5q-39 -49 -98 -77.5t-125 -28.5zM687 288q-31 0 -51.5 20.5t-20.5 51.5t20.5 51.5t51.5 20.5t51.5 -20.5
t20.5 -51.5q0 -15 -5.5 -28.5t-15 -23t-23 -15t-28.5 -5.5z" />
    <glyph glyph-name="uniE61C" unicode="&#xe61c;" 
d="M512 728l-360 -160v-240q0 -167 102.5 -304.5t257.5 -175.5q155 38 257.5 175.5t102.5 304.5v240zM432 88l-160 160l57 57l103 -104l263 264l57 -57z" />
    <glyph glyph-name="uniE61D" unicode="&#xe61d;" 
d="M944 512q-128 -129 -141 -142q-4 -4 -11 -6.5t-14.5 -3.5t-15 -1.5t-11.5 -0.5h-5q-5 0 -12.5 1t-29 4.5t-38 6.5t-33 8t-20.5 10q-8 7 -15 42t-10 66l-3 31q-4 34 13 51l142 142q1 0 1.5 1.5t2 4.5t1.5 5.5t-3 4.5t-9 2q-41 0 -71 -1.5t-78 -8t-87.5 -23t-65.5 -42.5
l-15 -15q-63 -64 -70 -151.5t42 -157.5l-285 -253q-14 -14 -24.5 -37t-15.5 -52t5 -61t35 -57t57 -35t60.5 -5t52 15.5t37.5 24.5q204 230 253 285q70 -52 158 -45t152 71l15 15q25 25 41.5 64t22.5 85.5t8 78t2 70.5q0 7 -2 10.5t-4.5 3.5t-5 -1t-4.5 -3l-2 -1v0zM228 -80
q-35 0 -60 24.5t-25 59.5t25 59.5t60 24.5t59.5 -24.5t24.5 -59.5q0 -23 -11 -42.5t-30.5 -30.5t-42.5 -11zM228 -80z" />
    <glyph glyph-name="uniE61E" unicode="&#xe61e;" 
d="M512 -147q-91 0 -174 35.5t-143 95.5t-95.5 142.5t-35.5 173.5q0 52 12 102.5t34 94.5t52.5 83t69.5 69.5t83 52.5t94.5 34t102.5 12q61 0 119 -16t107 -45t90 -70.5t70 -90.5t45 -107t16 -119q0 -73 -22.5 -141t-64 -123t-96.5 -96.5t-123 -64t-141 -22.5zM512 673
q-76 0 -145 -29.5t-119 -79.5t-79.5 -119t-29.5 -145t29.5 -145t79.5 -119t119 -79.5t145 -29.5q101 0 187 50t136 136t50 187.5t-50 187t-136 135.5t-187 50zM506 133q-11 -19 -32 -19h-112q-7 0 -14 3t-12 8t-8 12t-3 14v106q-1 9 1.5 17t8.5 15l225 225q11 11 27 11
t28 -11l109 -109q7 -8 9.5 -18t0 -19.5t-9.5 -17.5zM587 432l-187 -188v-56h53l189 189z" />
    <glyph glyph-name="uniE61F" unicode="&#xe61f;" 
d="M503 693q28 1 55 -2.5t53 -10.5t51 -17q11 -5 21 -10t20 -10.5t19.5 -11.5t18.5 -12t18 -13t17.5 -14.5t16.5 -15.5q56 -54 88.5 -128t33.5 -159q1 -40 -6 -78t-21 -73q-29 -71 -79.5 -125.5t-119.5 -89.5q-22 -12 -46 -21t-49.5 -14.5t-51.5 -8.5q-5 -1 -10 -1l-12 -2
h-10l-12 -2q-24 -2 -52 -2q-28 -1 -63 0q-35 0 -79 5q-96 9 -144 24q-40 14 -38 17q50 8 85 27q19 10 16 29q-2 10 -6.5 19t-12.5 17q-47 53 -76 122q-15 35 -23 72t-9 77q-1 85 31 159.5t87 130.5t129 89q19 8 38 14t39 10.5t40.5 6.5t42.5 2v0zM684 283q0 -12 4.5 -22
t12.5 -19q6 -6 12 -9.5t13.5 -5.5t15.5 -2q24 0 41.5 17t17.5 41q0 13 -4.5 23t-12.5 18q-18 17 -42 17q-12 0 -22.5 -4t-18.5 -13q-17 -16 -17 -41zM450 283q0 -6 1.5 -11.5t3.5 -10.5t5.5 -10t7.5 -10q9 -8 19.5 -12.5t22.5 -4.5q25 0 42.5 17.5t17.5 41.5q0 26 -18 43
q-8 8 -18.5 12.5t-23.5 4.5q-24 0 -42 -17t-18 -43zM219 284q0 -12 4.5 -22.5t13.5 -19.5q17 -17 41 -17q25 0 42 17q9 9 13.5 19.5t4.5 23t-4.5 22.5t-13.5 19q-17 17 -42 17q-3 0 -6.5 -0.5t-6.5 -1t-6 -1.5l-6 -2l-6 -4q-3 -1 -5 -4l-5 -4t-8 -9t-5 -10t-3.5 -11
t-1.5 -12zM219 284z" />
    <glyph glyph-name="uniE620" unicode="&#xe620;" 
d="M674 640q9 -34 8 -66q0 -3 -0.5 -9.5t-1.5 -14.5t-1.5 -17.5t-1 -18t-1 -16.5t0.5 -12q0 -5 1 -8.5t2.5 -5.5t3.5 -6t3 -7q7 -20 7 -35.5t-4 -35.5q-2 -10 -5 -20.5t-8 -16.5q-3 -5 -14 -10.5t-14 -12.5q-5 -7 -6 -18t-1.5 -23t-2.5 -19q-3 -9 -9.5 -16t-11 -15t-5.5 -20
q4 -1 8 -1.5t9.5 -1t8.5 -1.5q25 -56 39 -65q6 -2 13.5 -4t12 -3t13.5 -4q27 -11 78 -33t66 -28q9 -4 31 -12t33.5 -13t24.5 -17t18 -27q0 -10 1.5 -64.5t0.5 -76.5h-915q-1 22 0.5 76.5t1.5 64.5q5 15 18 27t24.5 17t33.5 13t31 12q18 7 46 19t53 23t45 19q2 1 6 2t7 2
t6.5 2t6.5 1.5t6.5 1.5t6.5 2q14 9 40 65l18 5q-2 13 -12 24.5t-13 17.5q-2 30 -7 76h-1q-2 0 -5 1t-5.5 1.5t-4.5 1.5t-3 1q-5 3 -8.5 8t-6 11t-4.5 14t-3 15t-2 16t-1.5 15t-1 14t-0.5 11q-1 4 6 17.5t4 26.5q-18 90 2.5 140.5t69.5 66.5q23 9 39.5 14t44.5 10.5t56 0
t54 -21.5l18 -17l29 -5q3 -1 5 -3t4 -4.5t4 -5.5t3.5 -5.5t2.5 -5.5t2 -5l2 -4q1 -2 1 -3v-1z" />
    <glyph glyph-name="uniE621" unicode="&#xe621;" 
d="M574 -135l15 87l-64 62q-35 34 -21 77t62 50l77 11q-2 1 -3.5 2t-3.5 2l-2 3q-14 12 -21 26q-3 7 -5 14t-2 14q-1 14 2 27q2 10 5 19q4 7 9 13q2 1 4 3t4 3.5t5 3.5q8 5 15 12q7 6 13 17q6 12 10 23l8 28q9 2 17 9q7 7 13 18q6 12 8 30q1 7 1 13t-1 11q-1 3 -1.5 6
t-2 5.5t-2.5 4.5q-3 7 -9 11q0 37 -5 71q-4 30 -16 65q-11 34 -33 63q-10 13 -26 25q-8 6 -17 11t-20 11q-3 1 -6.5 2.5t-7.5 3t-7.5 3t-7 2.5t-7.5 2.5t-8 2.5q-3 1 -7 2h-6l-8 2q-3 0 -7 0.5t-7.5 1t-7.5 0.5h-7q-19 0 -42 -4q-11 -2 -22 -5t-22 -7q-22 -10 -42 -25
q-21 -16 -38 -40q-18 -25 -27 -58q-10 -33 -13 -61q-5 -32 -4 -68q-2 -2 -3.5 -4.5t-3 -4.5t-2.5 -4.5t-2 -5.5q-1 -1 -2 -3v-4q-1 -2 -1.5 -4.5t-0.5 -4.5t-1 -5q0 -6 0.5 -12.5t2.5 -14.5q1 -3 2 -5l2 -6q1 -2 2.5 -4.5t2.5 -4.5t2 -3q2 -3 4 -5l4 -4l4 -4l12 -6
q2 -4 3 -7l2 -8l2 -6t2 -7q5 -13 10 -22q6 -12 13 -18q13 -11 27 -24q12 -12 14 -33q0 -7 0.5 -13.5t0.5 -11.5q0 -12 -4 -23q-4 -10 -14.5 -21t-29.5 -23q-11 -7 -24.5 -13t-29.5 -10q-18 -5 -130 -43q-29 -10 -50 -27q-11 -8 -17.5 -20.5t-9.5 -29.5q-7 -45 -4 -68
q2 -19 6 -29.5t9 -14.5q8 -6 46 -15q23 -5 67 -12t134 -15.5t174 -8.5q37 0 71 2q-2 12 1 25zM945 80l-94 14q-11 1 -22 9.5t-16 17.5l-41 85q-5 10 -12 10q-3 0 -6 -2.5t-6 -7.5l-42 -85q-5 -9 -16 -17.5t-21 -9.5l-94 -14q-11 -1 -13 -7.5t6 -14.5l67 -66q8 -8 12.5 -21
t2.5 -23l-16 -94q-3 -16 9 -16q5 0 10 3l83 44q10 5 24 5q13 0 23 -5l84 -44q5 -3 9 -3q12 0 9 16l-16 94q-1 10 3 23t12 21l68 66q7 8 5 14.5t-12 7.5z" />
    <glyph glyph-name="uniE622" unicode="&#xe622;" 
d="M255 353q3 2 8 6t22.5 15t35 21t44 22t52.5 21t57 15t59 6q41 0 81 -11t69 -26.5t52 -31t34 -26.5l12 -11l215 86l-457 227l-498 -224l113 -47v-106q-8 -3 -13 -11t-5 -17q0 -20 19 -29l-23 -64h68l-23 64q21 7 21 29t-21 29v95zM720 348q-32 23 -80 40t-112 17
q-41 0 -78 -7.5t-61 -19t-42 -22.5t-26 -19l-8 -8v-158q2 -3 6 -6.5t19 -13t34 -17t52 -14.5t71 -8v10q0 12 1 24q-65 2 -108.5 15t-43.5 29q0 13 24 23.5t66 16.5t91 6q30 51 82 81.5t113 30.5zM910 140h-17q-7 0 -12.5 4t-7.5 10l-10 25q-7 13 4 24l12 12q11 11 0 21
l-21 21q-4 4 -10 4t-11 -4l-12 -13q-3 -2 -7 -3.5t-8.5 -1.5t-8.5 2l-25 10q-3 1 -5.5 3t-4.5 4.5t-3 5.5t-1 6v18q0 4 -2 7.5t-5.5 5.5t-7.5 2h-29q-3 0 -6 -1t-5 -3t-3 -5t-1 -6v-18q0 -14 -14 -19l-25 -10q-5 -3 -12 -2t-12 5l-12 13q-11 11 -21 0l-21 -21q-11 -10 0 -21
l12 -12q11 -11 4 -24l-10 -25q-1 -2 -2.5 -4t-3.5 -4t-4 -3.5t-4.5 -2t-5.5 -0.5h-17q-4 0 -7.5 -2t-5.5 -5.5t-2 -7.5v-29q0 -4 2 -7.5t5.5 -5.5t7.5 -2h17q15 0 20 -14l10 -25q7 -13 -4 -24l-12 -12q-11 -11 0 -21l21 -21q10 -11 21 0l12 12q3 3 7.5 4.5t8.5 1.5t8 -2
l25 -11q14 -4 14 -19v-17q0 -7 4.5 -11t10.5 -4h29q6 0 10.5 4t4.5 11v17q0 15 14 19l25 11q6 3 12.5 2t11.5 -6l12 -12q3 -3 7 -4t7.5 0t6.5 4l21 21q5 4 5 10t-5 11l-12 12q-11 11 -4 24l10 25q2 5 7.5 9.5t12.5 4.5h17q6 0 10.5 4t4.5 11v29q0 6 -4.5 10.5t-10.5 4.5z
M733 36q-31 0 -53 22t-22 52.5t22 52t53 21.5q20 0 37 -9.5t27 -26.5t10 -38q0 -12 -4 -23t-11 -20.5t-16 -16t-20 -10.5t-23 -4z" />
    <glyph glyph-name="uniE623" unicode="&#xe623;" 
d="M622 459l-110 -111l-110 111l-61 -61l111 -110l-111 -110l61 -61l110 111l110 -111l61 61l-111 110l111 110zM512 715q-116 0 -214.5 -57t-155.5 -155.5t-57 -214.5t57 -214.5t155.5 -155.5t214.5 -57t214.5 57t155.5 155.5t57 214.5q0 87 -34 166t-91 136t-136 91
t-166 34zM512 -53q-56 0 -108 17t-94 48.5t-73.5 73.5t-48.5 94t-17 108q0 93 45.5 171.5t124 124t171.5 45.5t171.5 -45.5t124 -124t45.5 -171.5t-45.5 -171.5t-124 -124t-171.5 -45.5z" />
    <glyph glyph-name="uniE624" unicode="&#xe624;" 
d="M829 -154h-636q-26 0 -45 17t-19 42v445q0 25 19 42.5t45 17.5h636q8 0 15 -2t13 -4.5t12 -6.5t10 -9.5t7.5 -11t5 -12.5t1.5 -14v-445q0 -25 -18.5 -42t-45.5 -17zM511 261q-26 0 -48 -12t-34.5 -32.5t-12.5 -44.5t13 -44.5t34 -32.5v-84q0 -13 6.5 -23.5t17.5 -17
t24 -6.5q20 0 34 13.5t14 33.5v84q22 12 35 32.5t13 44.5q0 18 -8 34.5t-20.5 28.5t-30 19t-37.5 7v0zM511 647q-79 0 -135 -52t-56 -126h-95q0 36 10 71t28.5 64t45 54t58 42t68.5 26.5t76 9.5q119 0 202.5 -78t83.5 -189h-95q0 18 -4 36t-11 33.5t-17.5 30t-23.5 26.5
t-28.5 21.5t-32 16.5t-35.5 10.5t-39 3.5zM511 647z" />
    <glyph glyph-name="uniE625" unicode="&#xe625;" 
d="M508 -128q-114 0 -210.5 56t-152.5 152.5t-56 210.5q0 85 33 162.5t89 134t134 89.5t163 33q114 0 210.5 -56t152.5 -152.5t56 -210.5q0 -69 -21 -132.5t-60 -115.5t-90.5 -90.5t-115.5 -59.5t-132 -21zM508 -68q97 0 179.5 48t130.5 130.5t48 180t-48 180t-130.5 130.5
t-180 48t-180 -48t-130.5 -130.5t-48 -180t48 -180t130.5 -130.5t180.5 -48zM357 501l-74 -74l141 -140l-141 -141l74 -74l141 141l140 -141l74 74l-141 141l141 140l-74 74l-140 -141z" />
    <glyph glyph-name="uniE626" unicode="&#xe626;" 
d="M856 737h-686q-15 0 -25.5 -10.5t-10.5 -25.5v-826q0 -15 10.5 -25.5t25.5 -10.5h686q10 0 18.5 5t13 13t4.5 18v826q0 15 -10.5 25.5t-25.5 10.5zM513 99h-241v86h241v-86zM754 289h-482v86h482v-86zM754 478h-482v86h482v-86z" />
    <glyph glyph-name="uniE627" unicode="&#xe627;" 
d="M514 707q-108 0 -200.5 -53.5t-146 -146t-53.5 -200.5q0 -82 32 -156t85.5 -127.5t127.5 -85t155 -31.5q109 0 201 53.5t145.5 145.5t53.5 201q0 81 -31.5 155t-85 127.5t-127.5 85.5t-156 32zM514 -42q-71 0 -135.5 27.5t-111.5 74t-74.5 111.5t-27.5 136q0 94 47 174.5
t127 127.5t175 47t175.5 -47t127 -127.5t46.5 -175t-46.5 -175t-127 -127t-175.5 -46.5zM569 520h-110v-257h-114l169 -170l170 170h-115v257z" />
    <glyph glyph-name="uniE628" unicode="&#xe628;" 
d="M381 492q-17 0 -32.5 -7t-27 -18t-18 -26.5t-6.5 -32.5q0 -14 4.5 -26.5t12 -23t18 -18t23 -12t26.5 -4.5h84v84q0 13 -4.5 26t-12 23.5t-18 18t-23.5 12t-26 4.5zM297 128q0 -34 24.5 -58.5t59.5 -24.5t59.5 24.5t24.5 58.5v84h-84q-17 0 -32.5 -6.5t-27 -17.5t-18 -27
t-6.5 -33zM660 212h-84v-84q0 -34 25 -58.5t59 -24.5q23 0 42.5 11t30.5 30.5t11 41.5q0 35 -24.5 59.5t-59.5 24.5zM512 732q-90 0 -172 -35.5t-141.5 -95t-95 -141.5t-35.5 -172t35.5 -172t95 -141.5t141.5 -95t172 -35.5t172 35.5t141.5 95t95 141.5t35.5 172
q0 45 -9.5 89t-26 83.5t-41 75.5t-54 65.5t-65.5 54t-75.5 41t-83.5 26t-89 9.5zM502 128q0 -50 -35.5 -85.5t-85.5 -35.5t-85.5 35.5t-35.5 86t35.5 86t85.5 35.5h121v-122zM502 287h-121q-50 0 -85.5 35.5t-35.5 85.5t35.5 85.5t85.5 35.5t85.5 -35.5t35.5 -85.5v-121z
M660 7q-50 0 -85.5 35.5t-35.5 85.5v122h121q33 0 61 -16.5t44 -44.5t16 -61q0 -50 -35.5 -85.5t-85.5 -35.5zM660 287h-121v121q0 50 35.5 85.5t85.5 35.5q20 0 38.5 -6t33.5 -17.5t26 -26t17 -33t6 -38.5q0 -50 -35.5 -85.5t-85.5 -35.5zM660 492q-34 0 -59 -24.5
t-25 -59.5v-84h84q35 0 59.5 24.5t24.5 59.5q0 23 -11 42t-30.5 30.5t-42.5 11.5z" />
    <glyph glyph-name="uniE629" unicode="&#xe629;" 
d="M678 -6h197q5 0 8.5 3.5t3.5 8.5q0 3 -1.5 6t-4 4.5t-6.5 1.5h-197q-12 0 -12 -12q0 -5 3.5 -8.5t8.5 -3.5zM678 -52h197q5 0 8.5 3.5t3.5 8.5q0 3 -1.5 6t-4 4.5t-6.5 1.5h-197q-12 0 -12 -12q0 -5 3.5 -8.5t8.5 -3.5zM678 -98h197q4 0 6.5 1.5t4 4.5t1.5 6t-1.5 6
t-4 4.5t-6.5 1.5h-197q-12 0 -12 -12q0 -2 1 -4t2 -3.5t2.5 -2.5t3 -1.5t3.5 -0.5zM117 580l115 109q6 5 6 12.5t-5 13t-12.5 5.5t-13.5 -5l-115 -109q-5 -5 -5.5 -12.5t4.5 -12.5q6 -6 13 -6q8 0 13 5zM901 575q4 0 7.5 1.5t6.5 4.5q5 5 4.5 12.5t-5.5 12.5l-116 109
q-5 5 -12.5 5t-12.5 -5.5t-5 -13t6 -12.5l115 -109q3 -2 6 -3.5t6 -1.5zM499 251h19q10 0 10 10h208q9 0 9 10v18q0 10 -9 10h-208v208q0 10 -10 10h-19q-10 0 -10 -10v-208q-9 0 -9 -10v-18q0 -10 9 -10v0q2 -8 10 -10zM595 -76q0 -11 3 -22t8.5 -20.5t13 -17t17 -13
t20.5 -8.5t23 -3h194q35 0 60 24.5t25 59.5v158h-364v-158zM619 58h316v-134q0 -25 -18 -42.5t-43 -17.5h-194q-26 0 -43.5 17.5t-17.5 42.5v134zM961 120q-10 26 -32.5 42t-50.5 16h-202q-19 0 -35.5 -7t-29 -20.5t-18.5 -30.5q-1 -3 -0.5 -6t2.5 -5q3 -5 9 -5h345
q7 0 10.5 5t1.5 11zM624 128q19 26 52 26h202q32 0 52 -26h-306zM924 213q6 32 6 64q0 114 -57 211.5t-154 154t-212 56.5t-212 -56.5t-154 -154t-57 -212t57 -211.5t154 -154t212 -57q25 0 50 4q12 1 13 20q-1 15 -10 15q-27 -3 -53 -3q-105 0 -194.5 51.5t-141 141
t-51.5 194.5q0 52 13.5 102.5t38.5 93t61 78t78.5 60.5t92.5 39t103 14q105 0 194.5 -52t141 -141t51.5 -194v-16q0 -8 -1 -16t-2 -15.5t-2 -15.5q-1 -6 7.5 -8.5t17.5 -0.5t10 8z" />
    <glyph glyph-name="uniE62A" unicode="&#xe62a;" 
d="M951 702h-878q-5 0 -9.5 -1t-8.5 -3.5t-7.5 -6t-6 -7.5t-3.5 -8.5t-1 -9.5v-659q0 -15 10.5 -25.5t25.5 -10.5h351l-22 -73h-55q-7 0 -12.5 -5.5t-5.5 -13t5.5 -13t12.5 -5.5h330q3 0 6.5 1.5t6 4t4 6t1.5 6.5q0 8 -5.5 13.5t-12.5 5.5h-55l-22 73h351q15 0 25.5 10.5
t10.5 25.5v659q0 10 -4.5 18.5t-13 13t-18.5 4.5zM512 7q-10 0 -18.5 5t-13.5 13.5t-5 18.5q0 15 11 26t26 11q4 0 8 -1t8 -3t7 -4.5t5.5 -5.5t4.5 -7t3 -8t1 -8q0 -10 -5 -18.5t-13.5 -13.5t-18.5 -5zM110 117v512h804v-512h-804z" />
    <glyph glyph-name="uniE62B" unicode="&#xe62b;" 
d="M779 -108h-534q-29 0 -50 21t-21 51v284q0 30 21 50.5t50 20.5h534q29 0 50 -20.5t21 -50.5v-284q0 -30 -21 -51t-50 -21zM245 272q-9 0 -16 -7t-7 -17v-284q0 -7 3 -12.5t8.5 -8.5t11.5 -3h534q9 0 16 7t7 17v284q0 7 -3 12.5t-8.5 8.5t-11.5 3h-534zM749 446h-48v4v3v3
v4q0 2 -0.5 4t-0.5 3.5t-0.5 3.5t-0.5 3q-7 45 -33.5 81.5t-66.5 57.5t-86 21q-22 0 -43 -5t-39.5 -14.5t-34.5 -22t-29 -29t-22.5 -35t-14.5 -39.5t-5 -43h-47q0 97 69 166t166 69q21 0 42 -3.5t40.5 -11t37.5 -18t34 -24.5q66 -57 79 -142q3 -18 3 -36zM278 450h47v-136
h-47v136zM536 49q0 -9 -7 -16t-17 -7t-17 7t-7 16v103q0 10 7 17t17 7t17 -7t7 -17v-103z" />
    <glyph glyph-name="uniE62C" unicode="&#xe62c;" 
d="M119 292q4 -1 12 -5.5t33 -28.5t51 -59.5t65 -106.5t77 -162q9 -19 25 -28.5t31.5 -8t29 10t17.5 22.5q4 16 34 74.5t80.5 148.5t134 217t177.5 251q25 30 18 54q-8 23 -37 3q-4 -3 -8 -7q-29 -23 -71.5 -63.5t-108 -106t-141 -154.5t-139.5 -178q-45 88 -104 144
q-108 104 -176 -17z" />
    <glyph glyph-name="uniE62D" unicode="&#xe62d;" 
d="M944 320l-165 -142q-16 -16 -12 -39l38 -227q5 -27 -14 -41q-13 -10 -29 -10q-11 0 -22 6l-208 112q-10 5 -21 5t-20 -5l-200 -112q-12 -6 -25.5 -5t-24.5 9q-28 19 -24 41l48 232q2 11 -1.5 21.5t-11.5 17.5l-174 137q-21 21 -12 49q4 13 14.5 22t24.5 11l226 39
q11 2 19.5 8.5t13.5 16.5l104 219q13 27 43 27t43 -27l100 -219q11 -21 34 -25l230 -39q9 -2 16.5 -6t13.5 -11t8 -16q3 -9 2.5 -17.5t-4 -17t-10.5 -14.5z" />
    <glyph glyph-name="uniE62E" unicode="&#xe62e;" 
d="M515 638q104 -178 115 -198q20 -36 60 -43q3 -1 7 -1.5t17 -3.5l28 -4q13 -3 33 -6.5t39 -7t41 -7.5t42 -8q-31 -34 -69 -75t-60 -64.5t-23 -24.5q-29 -30 -23 -71q7 -45 26 -190q-79 37 -189 90l-5 2q-19 9 -39 9t-38 -9h-2q-60 -28 -196 -91q5 40 11.5 87.5t10 74
t3.5 28.5q2 13 0 25.5t-8 24.5t-15 21q-134 143 -153 164l209 37q41 8 61 43l7 12q7 12 19.5 32.5t26.5 45t31.5 54t32.5 54.5zM515 777q-2 0 -4.5 -0.5t-5.5 -2t-6 -4t-7 -6t-8.5 -8.5t-9 -12.5t-9.5 -16.5q-25 -41 -61 -102.5t-60 -101.5l-23 -41q-162 -29 -266 -47
q-37 -6 -49.5 -32t8.5 -48q73 -82 202 -218q-21 -149 -33 -251q-1 -14 2 -26t10 -19.5t16.5 -11.5t20.5 -4q16 0 33 7q38 18 92.5 43t103 47.5t54.5 25.5q182 -87 247 -117q17 -8 32 -8q24 0 38 16.5t11 45.5q-5 45 -13.5 108t-13.5 103l-6 40q128 136 200 218
q21 22 8.5 48.5t-49.5 31.5q-46 8 -111.5 20t-107.5 20l-43 8q-87 152 -142 245q-24 42 -44 48l-6 2v0z" />
    <glyph glyph-name="uniE62F" unicode="&#xe62f;" 
d="M512 748q-91 0 -174 -35.5t-143 -95.5t-95.5 -143t-35.5 -174t35.5 -174t95.5 -143t143 -95.5t174 -35.5t174 35.5t143 95.5t95.5 143t35.5 174t-35.5 174t-95.5 143t-143 95.5t-174 35.5zM512 -103q-109 0 -202 54t-147 147t-54 202t54 202t147 147t202 54
q82 0 156.5 -32t128.5 -86t86 -128.5t32 -156.5q0 -109 -54 -202t-147 -147t-202 -54zM310 322q-4 0 -8 -1.5t-7 -4.5t-5 -7.5t-2 -8.5q0 -9 6.5 -16t15.5 -7h367l-131 -145q-5 -4 -6.5 -9.5t0 -11.5t6.5 -10q3 -3 7 -5t8 -2q10 0 16 7l180 198l-182 198q-7 6 -16.5 6
t-16 -6.5t-6.5 -16t7 -15.5l133 -143h-366zM310 322z" />
    <glyph glyph-name="uniE630" unicode="&#xe630;" 
d="M607 651l-298 -311q-7 -7 -12 -15.5t-7.5 -18t-2.5 -18.5q1 -31 22 -52q271 -285 298 -311q10 -10 24.5 -15.5t29 -6t29 5t24.5 16.5q23 22 23.5 49.5t-23.5 54.5l-248 259l248 259q24 27 23.5 54.5t-23.5 49.5q-10 11 -24.5 16.5t-29 5t-29 -6t-24.5 -15.5z" />
    <glyph glyph-name="uniE631" unicode="&#xe631;" 
d="M725 812h-426q-10 0 -19 -4t-15.5 -10.5t-10 -15t-3.5 -18.5v-928q0 -13 6.5 -24t17.5 -17.5t24 -6.5h426q20 0 34 14t14 34v928q0 20 -14 34t-34 14zM472 764h80q5 0 7.5 -3t2.5 -7t-2.5 -7t-7.5 -3h-80q-4 0 -7 3t-3 7t3 7t7 3zM512 -178q-7 0 -14 2.5t-12.5 6.5
t-9.5 9.5t-6 12t-2 13.5q0 19 13 32t31 13t31 -13t13 -31.5t-13 -31.5t-31 -13zM729 -31q0 -10 -7 -17t-17 -7h-386q-6 0 -12 3t-9 8.5t-3 12.5v710q0 10 7 17t17 7h386q10 0 17 -7t7 -17v-710z" />
    <glyph glyph-name="uniE632" unicode="&#xe632;" horiz-adv-x="1263" 
d="M1141 -7h-480v-111h184q16 0 26.5 -11t10.5 -26t-10.5 -26t-26.5 -11h-443q-16 0 -26.5 11t-10.5 26q0 6 2 11.5t5 10t7.5 8t10.5 5.5t12 2h185v111h-481q-31 0 -52.5 21.5t-21.5 52.5v627q0 31 21.5 52.5t52.5 21.5h1035q15 0 29 -6t23.5 -16t15.5 -23.5t6 -28.5v-627
q0 -10 -2.5 -20t-7.5 -18t-11.5 -14.5t-15 -11.5t-18 -7.5t-19.5 -2.5zM1141 694h-1035v-627h1035v627z" />
    <glyph glyph-name="uniE633" unicode="&#xe633;" 
d="M161 -47h638v-88h-638v88zM161 42h184l410 357l-183 178l-366 -356zM617 620l182 -175l102 88l-172 178z" />
    <glyph glyph-name="uniE634" unicode="&#xe634;" 
d="M801.5 465q17.5 0 30.5 12.5t13 30t-13 30.5q-3 4 -6.5 6t-7.5 4t-8 2.5t-8 0.5q-18 0 -31 -13q-12 -13 -13 -30q0 -18 13 -30.5t30.5 -12.5zM746 395l-129 -198l-240 315l-242 -487h754zM32 708v-840h960v840h-960zM932 -72h-840v720h840v-720z" />
    <glyph glyph-name="uniE635" unicode="&#xe635;" horiz-adv-x="1093" 
d="M90 710v-844h900v844h-900zM203 -21v618h675v-618h-675zM821 91v56h-337v-56h337zM821 204v56h-337v-56h337zM821 316v56h-337v-56h337zM428 35v337h-169v-337h169zM821 429v112h-562v-112h562z" />
    <glyph glyph-name="uniE636" unicode="&#xe636;" 
d="M282 70q0 -11 4.5 -21t11.5 -17.5t17 -12t21 -4.5h38q-2 -7 -2 -14v-111q0 -10 4 -20t11 -17t16.5 -11t19.5 -4q21 0 36 15.5t15 36.5v111q0 7 -2 14h94q-1 -3 -1.5 -7t-0.5 -7v-111q0 -21 15 -36.5t36 -15.5t36 15.5t15 36.5v111q0 7 -2 14h38q23 0 38.5 16t15.5 39v383
h-474v-383zM197 453q-21 0 -35.5 -15t-14.5 -37v-223q0 -22 14.5 -37.5t35.5 -15.5t36 15.5t15 37.5v223q0 14 -6.5 26.5t-18.5 19t-26 6.5zM841 453q-21 0 -36 -15t-15 -37v-223q0 -22 15 -37.5t36 -15.5t35.5 15.5t14.5 37.5v223q0 22 -14.5 37t-35.5 15zM636 663l40 61
q1 2 1 4.5t-1 4.5t-3 4q-7 4 -12 -3l-22 -35l-10 -15l-9 -14q-48 19 -101 19q-27 0 -52 -5t-49 -14l-19 29l-22 35q-2 3 -5.5 4t-6.5 -1q-7 -5 -3 -13l41 -61q-55 -27 -88 -73.5t-33 -101.5h474q0 55 -33 101.5t-87 73.5zM418 558q-11 0 -18.5 7.5t-7.5 18.5t7.5 18.5
t18.5 7.5q6 0 12 -3.5t9.5 -9.5t3.5 -13t-3.5 -13t-9.5 -9.5t-12 -3.5zM620.5 558q-10.5 0 -18 7.5t-7.5 18.5t7.5 18.5t18 7.5t18 -7.5t7.5 -18.5t-7.5 -18.5t-18 -7.5z" />
    <glyph glyph-name="uniE637" unicode="&#xe637;" 
d="M637 574q20 24 31 57.5t11 55.5v21q-9 0 -23.5 -3t-48 -18.5t-54 -39.5t-31.5 -57.5t-11 -55.5v-22q9 1 23.5 4t48 18.5t54.5 39.5v0zM738 262q0 50 25 92.5t68 65.5q-28 40 -72.5 64t-82.5 24q-33 0 -92 -20.5t-66 -20.5t-55.5 18.5t-87.5 19.5q-31 0 -65 -11t-68 -41.5
t-50 -75.5q-17 -50 -20.5 -108.5t11 -126.5t47.5 -130q77 -146 151 -146q24 0 74.5 18t72.5 18t65 -18t66 -18q33 0 66.5 24.5t60.5 64.5q6 9 11.5 18.5t10.5 19.5l10 20l10 19q4 9 7.5 17.5t6.5 15.5t5.5 12t3.5 8l1 3v5q-25 10 -46 27t-36 38.5t-23.5 48t-8.5 55.5v0z
M738 262z" />
    <glyph glyph-name="uniE638" unicode="&#xe638;" 
d="M512 -87l-353 352l46 46l307 -307l307 307l46 -46zM480 684h64v-708h-64v708z" />
    <glyph glyph-name="uniE639" unicode="&#xe639;" 
d="M633 535q23 0 41.5 -10t32 -25t20.5 -32.5t7 -30.5v-446q0 -11 -2 -21.5t-6.5 -19.5t-10.5 -16.5t-13 -14.5q-15 -12 -33 -19q-9 -4 -18 -6t-18 -2h-389q-8 0 -16 2.5t-17 6.5q-18 9 -33 23t-25.5 32.5t-10.5 37.5v440q0 16 8 34q4 9 9 17t12 16q12 15 28.5 24.5
t34.5 9.5h399zM586 42q21 0 35.5 14.5t14.5 35t-14.5 35t-35.5 14.5h-296q-20 0 -35 -15q-7 -7 -10.5 -16t-3.5 -19q0 -20 14.5 -34.5t34.5 -14.5h296zM586 239q21 0 35.5 14.5t14.5 34.5q0 7 -1.5 13.5t-5 12t-8.5 9.5q-14 15 -35 15h-296q-20 0 -34.5 -14.5t-14.5 -35
t14.5 -35t34.5 -14.5h296zM726 684q34 0 62 -20.5t49 -50t33 -63.5t12 -63v-419q0 -16 -10 -30t-24 -24t-30.5 -15.5t-31.5 -5.5h-3v470q-6 55 -33.5 84t-73.5 38h-385l1 5q0 16 9 33q5 8 11.5 15.5t13.5 14.5q16 13 35 22t37 9h328zM726 684z" />
    <glyph glyph-name="uniE63A" unicode="&#xe63a;" 
d="M521.5 388q-35.5 0 -61 -26t-25.5 -63q0 -25 11.5 -45.5t31.5 -32.5t43 -12q36 0 61.5 26.5t25.5 63.5t-25.5 63t-61 26zM515 644q-56 0 -114 -18.5t-106 -48.5t-92.5 -66.5t-78 -72t-58.5 -66t-38 -48.5t-13 -19l46 -61q153 -189 318 -252q70 -26 136 -26q195 0 396 212
q65 68 104 127q-5 7 -13.5 19.5t-37.5 47.5t-59.5 67t-77 71t-93 67.5t-105 47.5t-114.5 19zM515 93q-86 0 -147 62t-61 150t61 150t147 62t147 -62t61 -150q0 -22 -4 -43t-12 -39.5t-19.5 -36t-25.5 -31.5t-30.5 -25.5t-35 -19.5t-39.5 -12.5t-42 -4.5z" />
    <glyph glyph-name="uniE63B" unicode="&#xe63b;" 
d="M512 710q-115 0 -212 -56.5t-153.5 -153.5t-56.5 -212t56.5 -212t153.5 -153.5t212 -56.5q86 0 164 33.5t134.5 90t90 134.5t33.5 164q0 115 -56.5 212t-153.5 153.5t-212 56.5zM512 -28q-131 0 -223.5 92.5t-92.5 223.5q0 64 25 123t67 101t101 67t123 25q86 0 159 -42
t115 -115t42 -159q0 -131 -92.5 -223.5t-223.5 -92.5zM713 411q-15 12 -21.5 16t-25.5 14q-8 3 -17.5 -3.5t-17.5 -15.5l-159 -223l-85 125q-6 8 -15.5 11t-17.5 -1q-19 -10 -43 -29q-4 -4 -6 -9.5t-1 -11.5t5 -11q96 -140 114 -163q20 -24 50 -24t49 24q3 4 11.5 15.5
t20.5 28t26.5 37t30 42t30.5 42.5t28.5 40t23.5 33.5t16 22.5t6 9q4 5 5 11t-1 11t-6 9z" />
    <glyph glyph-name="uniE63C" unicode="&#xe63c;" horiz-adv-x="1025" 
d="M808.5 587q-80.5 81 -189 109.5t-217 0t-189.5 -109.5t-109.5 -189.5t0 -217t109.5 -189t189.5 -109.5t217 0t189 109.5t109.5 189t0 217t-109.5 189.5zM271 529q90 90 216.5 98.5t225.5 -66.5l-474 -474q-75 99 -66.5 225.5t98.5 216.5zM750.5 49.5
q-89.5 -89.5 -216 -98t-225.5 66.5l474 473q74 -98 65.5 -225t-98 -216.5z" />
    <glyph glyph-name="uniE63D" unicode="&#xe63d;" 
d="M809 582q-23 24 -49.5 43.5t-55.5 34t-60 25t-63.5 15.5t-65.5 5q-84 0 -160 -31t-136 -90q-39 -40 -67 -87t-42.5 -99.5t-14.5 -108.5q-1 -84 30 -160t90 -135t135 -91t159.5 -32t160 31t135.5 90q40 40 67.5 87t42 99.5t14.5 108.5q1 84 -30 160t-90 135zM757 41
q-50 -50 -114 -76t-134 -26q-144 0 -245.5 102.5t-100.5 247t104 247t247.5 102t246 -103t100.5 -247.5q0 -23 -3 -46t-9 -44.5t-15 -42.5t-20.5 -41t-25.5 -38t-31 -34zM623 463q-45 40 -110 41q-62 0 -107 -39q-20 -18 -31 -40.5t-13 -48.5l69 -10q3 11 8.5 21.5t11.5 18
t14 13.5q20 17 51 17q16 0 28.5 -4.5t21.5 -12.5q19 -17 19 -40q0 -17 -11 -31q-2 -3 -7.5 -8t-14.5 -12.5t-20.5 -17t-21 -18.5t-16 -17t-10.5 -16q-2 -4 -3.5 -8t-3 -8.5t-2.5 -9.5t-1.5 -10t-1 -10.5t-0.5 -11.5v-3v-8v-8l73 -1q0 33 6 46q3 7 11 15.5t21 18.5
q10 8 18.5 15.5t16 14.5t13 13t10 11.5t7.5 9.5q15 24 15 51q1 24 -9.5 46.5t-30.5 40.5zM551 73h-81l1 81l80 -1v-80z" />
    <glyph glyph-name="uniE63E" unicode="&#xe63e;" horiz-adv-x="1000" 
d="M337 497q26 0 50.5 -10t42.5 -28.5t28.5 -42.5t10.5 -51q0 -54 -39 -93q-12 -12 -26.5 -20.5t-31.5 -13.5t-35 -5q-55 0 -94 39t-39 93.5t39 93.5q12 12 26.5 20.5t32 13t35.5 4.5zM700 636q1 1 2 1h4h110q39 0 67 -28q9 -9 16 -20t12 -23.5t7 -26.5l57 -329q1 -7 1 -13
q0 -35 -27 -61q-11 -12 -26.5 -20t-31.5 -10q-9 -2 -18 -2h-701q-9 0 -18 2q-17 2 -32 10t-27 20t-19.5 27.5t-7.5 33.5q0 6 2 13l57 329q7 43 34 70q29 28 68 28h342q4 0 8 -1l46 84q2 4 6 6t8 2t8 -2q5 -2 7 -7zM553 590h-324q-10 0 -18.5 -4t-15.5 -11q-5 -5 -9.5 -12
t-7.5 -15t-4 -17l-57 -329q-1 -1 -1 -2v-3q0 -15 13 -28q4 -4 9.5 -7.5t11.5 -5.5l12 -4h10h701h5h5q19 4 33 17q13 13 13 28q0 1 -0.5 2.5t-0.5 2.5l-57 329q-5 28 -21 44q-14 15 -34 15h-91l49 -88q3 -6 1 -13t-8 -10q-1 -1 -2.5 -1.5t-2.5 -0.5h-3h-120h-120
q-7 0 -11.5 5t-4.5 12q0 2 0.5 4t1.5 4zM973 127q2 -2 2.5 -4t1 -4.5t0.5 -4.5l-25 -146q-2 -11 -9.5 -18.5t-17.5 -7.5h-805q-11 0 -18 7.5t-9 18.5l-25 146q-1 5 3 13q5 -14 16 -25q16 -18 40 -26q8 -3 17 -5t17 -2h723q15 0 30 5q8 3 15.5 7t14.5 9t12 11q4 4 7 8t5 9z
M685 595l-46 82l-45 -82l-47 -85h92h92zM564 437h222q3 0 6 -1.5t5.5 -3.5t3.5 -5.5t1 -6.5v-221q0 -7 -4.5 -12t-11.5 -5h-222q-7 0 -11.5 5t-4.5 12v221q0 3 1 6.5t3.5 5.5t5.5 3.5t6 1.5zM769 403h-188v-188h188v188zM406 435q-29 29 -69.5 29t-69.5 -29t-29 -70t29 -70
t69.5 -29t69.5 29q9 9 15.5 20t10 24t3.5 26q0 41 -29 70z" />
    <glyph glyph-name="uniE63F" unicode="&#xe63f;" 
d="M470 719q-85 -2 -145.5 -75.5t-57.5 -171.5q1 -38 13 -74.5t33 -66t49 -50.5q52 -40 112 -40q61 0 114 40q44 34 70 87.5t26 113.5q-1 49 -18.5 93t-46 76t-68 50.5t-81.5 17.5zM528 178q-27 -9 -54 -9q-60 0 -112 40q-49 -17 -168.5 -77t-119.5 -72v-126q0 -24 33 -24
h473q-70 72 -70 174q0 48 18 94zM754.5 282q-80.5 0 -137.5 -58t-57 -141q0 -53 26 -99t71 -72.5t98 -26.5q80 0 137.5 58t57.5 140.5t-57.5 140.5t-138 58zM753 -18l-18 -23l-100 108l37 34l60 -66l122 150l39 -31z" />
    <glyph glyph-name="uniE640" unicode="&#xe640;" 
d="M64 735h895v-149h-895v149zM64 362h895v-149h-895v149zM64 -11h895v-149h-895v149z" />
  </font>
</defs>
</svg>
